<?xml version="1.0" standalone="no"?>
<!DOCTYPE svg PUBLIC "-//W3C//DTD SVG 20010904//EN"
 "http://www.w3.org/TR/2001/REC-SVG-20010904/DTD/svg10.dtd">
<svg version="1.0" xmlns="http://www.w3.org/2000/svg"
 width="1024.000000pt" height="1024.000000pt" viewBox="0 0 1024.000000 1024.000000"
 preserveAspectRatio="xMidYMid meet">
<metadata>
Created by potrace 1.16, written by Peter Selinger 2001-2019
</metadata>
<g transform="translate(0.000000,1024.000000) scale(0.100000,-0.100000)"
fill="#000000" stroke="none">
<path d="M4934 7740 c-192 -15 -392 -55 -579 -116 -644 -210 -1170 -670 -1475
-1289 -162 -329 -244 -647 -266 -1032 l-7 -123 541 0 c603 0 552 -7 552 73 0
71 29 223 61 324 168 524 602 896 1144 979 122 19 358 14 483 -11 616 -121
1090 -653 1138 -1279 l7 -86 553 0 c363 0 555 3 559 10 4 6 1 79 -5 163 -27
381 -105 676 -259 992 -251 512 -638 897 -1156 1150 -240 118 -472 191 -725
230 -127 19 -414 27 -566 15z"/>
<path d="M4945 6320 c-398 -63 -714 -298 -891 -665 -299 -619 -10 -1365 624
-1610 256 -98 601 -103 845 -11 177 66 297 145 432 280 234 235 347 536 332
880 -24 552 -398 994 -938 1112 -88 19 -319 27 -404 14z m-614 -809 c38 -37
39 -41 39 -107 l0 -69 -140 -2 -140 -2 0 55 c0 63 16 101 60 138 26 21 42 26
87 26 51 0 58 -3 94 -39z m405 20 c43 -26 66 -79 62 -144 l-3 -52 -135 0 -135
0 -3 52 c-6 99 48 163 138 163 26 0 58 -8 76 -19z m430 0 c43 -26 66 -79 62
-144 l-3 -52 -137 -3 -138 -3 0 56 c0 75 36 138 90 158 33 12 96 6 126 -12z
m414 6 c44 -22 70 -73 70 -137 0 -69 5 -68 -160 -66 l-115 1 -3 53 c-4 61 26
125 68 148 31 17 107 18 140 1z m455 -29 c34 -37 52 -104 39 -152 l-6 -26
-134 0 -134 0 0 69 c0 61 3 74 27 101 35 42 57 50 122 46 47 -2 59 -8 86 -38z
m-1687 -470 l-3 -143 -117 -3 -118 -3 0 146 0 145 120 0 121 0 -3 -142z m432
-3 l0 -145 -120 0 -120 0 0 145 0 145 120 0 120 0 0 -145z m418 3 l-3 -143
-115 0 -115 0 -3 143 -3 142 121 0 121 0 -3 -142z m422 -3 l0 -145 -115 0
-115 0 -1 88 c0 48 -2 101 -3 117 -2 17 -1 42 2 58 l5 27 113 0 114 0 0 -145z
m420 0 l0 -146 -117 3 -118 3 -3 143 -3 142 121 0 120 0 0 -145z m-1690 -490
c0 -101 -4 -175 -9 -175 -19 0 -143 167 -186 251 -25 48 -45 90 -45 93 0 3 54
6 120 6 l120 0 0 -175z m430 -131 l0 -306 -27 6 c-16 4 -70 27 -120 51 l-93
44 0 256 0 255 120 0 120 0 0 -306z m420 -23 c0 -291 -2 -330 -16 -335 -20 -8
-119 -8 -178 0 l-46 7 0 328 0 329 120 0 120 0 0 -329z m428 58 l0 -271 -61
-28 c-78 -34 -167 -64 -174 -57 -2 3 -7 145 -10 316 l-6 311 126 0 126 0 -1
-271z m412 185 l0 -86 -47 -61 c-53 -70 -168 -187 -183 -187 -6 0 -10 78 -10
210 l0 210 120 0 120 0 0 -86z"/>
</g>
</svg>
